<svg height="30" viewBox="0 0 2568 413" fill="none" xmlns="http://www.w3.org/2000/svg">
<path d="M551.98 147.1V193.68H579.52V329H632.9V193.68H671.66V147.1H633.58C632.56 124.32 656.02 124.32 672 128.4L673.7 88.28C628.82 78.76 576.46 89.98 580.2 147.1H551.98ZM879.036 237.2C879.036 106.3 682.856 105.96 682.856 237.2C682.856 367.42 879.036 368.1 879.036 237.2ZM736.576 237.2C736.576 174.98 825.316 174.64 825.316 237.2C825.316 299.08 736.576 298.74 736.576 237.2ZM957.576 227C957.576 202.18 977.296 191.98 996.676 191.64C1002.8 191.64 1009.26 192.66 1014.7 194.36L1015.38 144.04C1008.24 142.34 1001.1 141.32 994.636 141.32C979.676 141.32 966.416 146.08 954.516 157.3L952.476 145.06H904.196V329H957.576V227ZM1045.69 145.06C1045.69 224.28 1045.69 249.78 1045.69 329H1102.47V224.96C1102.47 204.22 1119.81 194.7 1133.07 195.04C1145.31 195.38 1155.85 203.54 1155.85 225.64V329H1207.53H1209.91V224.28C1210.25 203.88 1229.97 194.7 1243.23 195.04C1255.47 195.38 1266.01 203.54 1266.01 225.64V329H1320.07V225.3C1320.75 167.16 1292.87 144.04 1258.19 142.68C1236.77 141.66 1209.91 149.48 1197.33 166.82C1188.83 152.88 1175.23 143.36 1154.15 142.34C1134.43 142 1112.67 147.1 1099.75 163.42V145.06H1045.69ZM1437.39 284.46L1414.95 219.86L1384.69 145.06H1349.33L1424.13 330.36H1450.65L1525.11 145.06H1489.75L1459.83 220.54L1437.39 284.46ZM1591.69 329H1558.37V143.02H1591.69V329ZM1554.29 97.8C1554.29 123.64 1595.77 123.64 1595.77 97.8C1595.77 71.96 1554.29 72.64 1554.29 97.8ZM1825.52 229.04C1821.78 171.24 1776.9 142.34 1731.34 142.34C1682.72 142.34 1635.8 173.96 1635.8 237.2C1635.8 300.44 1683.4 332.4 1730.66 332.4C1768.4 332.4 1806.14 312.34 1820.08 272.22H1785.74C1774.86 292.96 1753.78 302.82 1731 302.82C1703.46 302.82 1669.12 281.06 1669.12 245.02H1824.84C1825.86 240.26 1826.2 234.48 1825.52 229.04ZM1670.48 217.48C1677.28 184.84 1704.48 171.58 1731.34 171.58C1757.86 171.58 1784.04 184.5 1790.5 217.48H1670.48ZM1850.8 145.06L1910.98 330.36H1936.14L1958.92 258.28L1974.9 202.86L1990.88 258.28L2013.32 330.36H2038.82L2099 145.06H2063.98L2048.34 195.38L2026.58 274.26L1989.52 145.06H1959.94L1923.22 274.26L1901.12 195.38L1885.82 145.06H1850.8ZM2308.63 229.04C2304.89 171.24 2260.01 142.34 2214.45 142.34C2165.83 142.34 2118.91 173.96 2118.91 237.2C2118.91 300.44 2166.51 332.4 2213.77 332.4C2251.51 332.4 2289.25 312.34 2303.19 272.22H2268.85C2257.97 292.96 2236.89 302.82 2214.11 302.82C2186.57 302.82 2152.23 281.06 2152.23 245.02H2307.95C2308.97 240.26 2309.31 234.48 2308.63 229.04ZM2153.59 217.48C2160.39 184.84 2187.59 171.58 2214.45 171.58C2240.97 171.58 2267.15 184.5 2273.61 217.48H2153.59ZM2352.54 145.4V329H2385.52V229.38C2385.52 189.6 2421.56 162.06 2459.3 173.28V144.04C2430.06 137.24 2403.2 143.02 2385.52 167.84V145.4H2352.54Z" fill="#282828"/>
<path fill-rule="evenodd" clip-rule="evenodd" d="M180 112.5H112.5V412.5H0V112.5C0 50.6181 49.9631 0.405831 111.75 0.00244761V0.261612C113.169 0.171318 114.593 0.104027 116.025 0.0604248L116.131 0.0573349C117.416 0.0192261 118.706 0 120 0H300C300 62.1321 246.274 112.5 180 112.5Z" fill="url(#paint0_linear)"/>
<path d="M0 278.25C0 216.118 50.368 165.75 112.5 165.75L300 165.75V165.75C300 227.882 249.632 278.25 187.5 278.25H0V278.25Z" fill="#4286F4"/>
<defs>
<linearGradient id="paint0_linear" x1="36.75" y1="66.5164" x2="297.221" y2="239.297" gradientUnits="userSpaceOnUse">
<stop stop-color="#4286F4"/>
<stop offset="1" stop-color="#373B44"/>
</linearGradient>
</defs>
</svg>
